<svg xmlns="http://www.w3.org/2000/svg" xmlns:xlink="http://www.w3.org/1999/xlink" width="20" height="20" viewBox="0 0 20 20">
  <defs>
    <clipPath id="clip-path">
      <path id="Path_2144" data-name="Path 2144" d="M9.99-20A10,10,0,0,0,0-10,10,10,0,0,0,9.99,0,10.006,10.006,0,0,0,20-10,10.006,10.006,0,0,0,9.99-20Zm6.93,6H13.97a15.649,15.649,0,0,0-1.38-3.56A8.03,8.03,0,0,1,16.92-14ZM10-17.96A14.087,14.087,0,0,1,11.91-14H8.09A14.087,14.087,0,0,1,10-17.96ZM2.26-8A8.242,8.242,0,0,1,2-10a8.242,8.242,0,0,1,.26-2H5.64a16.515,16.515,0,0,0-.14,2,16.515,16.515,0,0,0,.14,2Zm.82,2H6.03A15.649,15.649,0,0,0,7.41-2.44,7.987,7.987,0,0,1,3.08-6Zm2.95-8H3.08a7.987,7.987,0,0,1,4.33-3.56A15.649,15.649,0,0,0,6.03-14ZM10-2.04A14.087,14.087,0,0,1,8.09-6h3.82A14.087,14.087,0,0,1,10-2.04ZM12.34-8H7.66a14.713,14.713,0,0,1-.16-2,14.585,14.585,0,0,1,.16-2h4.68a14.585,14.585,0,0,1,.16,2A14.713,14.713,0,0,1,12.34-8Zm.25,5.56A15.649,15.649,0,0,0,13.97-6h2.95a8.03,8.03,0,0,1-4.33,3.56ZM14.36-8a16.515,16.515,0,0,0,.14-2,16.515,16.515,0,0,0-.14-2h3.38A8.242,8.242,0,0,1,18-10a8.242,8.242,0,0,1-.26,2Z" fill="none"/>
    </clipPath>
  </defs>
  <g id="Group_407" data-name="Group 407" transform="translate(0 20)" clip-path="url(#clip-path)">
    <path id="Path_2143" data-name="Path 2143" d="M-1-21H21V1H-1Z" fill="#636363"/>
  </g>
</svg>
